<?xml version="1.0" standalone="no"?>
<!DOCTYPE svg PUBLIC "-//W3C//DTD SVG 20010904//EN"
 "http://www.w3.org/TR/2001/REC-SVG-20010904/DTD/svg10.dtd">
<svg version="1.0" xmlns="http://www.w3.org/2000/svg"
 width="751.000000pt" height="176.000000pt" viewBox="0 0 751.000000 176.000000"
 preserveAspectRatio="xMidYMid meet">

<g transform="translate(0.000000,176.000000) scale(0.100000,-0.100000)"
fill="#000000" stroke="none">
<path d="M1470 1240 c0 -429 0 -440 -19 -440 -11 0 -23 5 -26 10 -11 19 -86
10 -140 -16 -30 -14 -70 -44 -90 -66 -29 -35 -35 -49 -35 -88 0 -37 5 -51 26
-71 22 -21 35 -24 93 -23 57 0 74 4 111 30 25 16 55 45 67 63 22 33 23 40 23
300 0 146 4 272 9 280 8 12 24 6 86 -30 142 -81 193 -145 206 -259 l6 -55 2
61 c0 34 -5 76 -12 94 -10 22 -13 61 -9 128 4 91 2 101 -24 157 -20 42 -59 92
-131 166 -63 65 -104 117 -108 135 -13 54 -16 64 -26 64 -5 0 -9 -175 -9 -440z
m195 118 c48 -51 68 -80 80 -119 17 -59 20 -119 6 -119 -17 0 -212 204 -232
242 -10 21 -19 56 -19 78 l0 41 51 -28 c28 -15 79 -58 114 -95z"/>
<path d="M2610 1000 c-29 -15 -46 -38 -88 -122 -89 -175 -121 -230 -143 -255
l-22 -23 37 0 c32 0 37 2 26 14 -9 12 -6 24 15 60 l27 46 109 0 109 0 21 -41
c11 -23 19 -52 16 -65 -4 -23 -2 -24 52 -24 52 1 54 2 32 14 -24 13 -50 51
-51 73 0 7 -15 45 -34 85 -65 141 -90 219 -77 240 13 22 15 22 -29 -2z m23
-149 c15 -40 26 -80 23 -87 -4 -10 -27 -14 -86 -14 -77 0 -80 1 -79 23 0 12 9
36 19 52 11 17 29 47 40 68 30 55 49 46 83 -42z"/>
<path d="M6140 1007 l25 -13 3 -177 c2 -177 2 -177 -22 -202 l-25 -25 72 1
c57 0 68 2 51 11 -18 8 -23 22 -29 82 -7 80 5 121 38 132 26 8 45 -12 121
-127 l61 -94 45 -2 c30 -2 39 0 26 6 -11 4 -29 21 -40 38 -103 151 -146 218
-146 228 0 7 35 45 77 84 l78 71 -45 -1 c-25 0 -39 -3 -32 -6 24 -10 11 -37
-40 -85 -134 -124 -147 -125 -140 -11 2 43 9 84 14 91 8 9 -4 12 -53 12 -58 0
-62 -1 -39 -13z"/>
<path d="M6623 1013 c30 -8 37 -47 36 -201 -1 -169 -6 -192 -39 -209 -22 -11
-15 -13 55 -12 62 0 75 3 59 11 -23 11 -34 50 -34 128 0 79 45 114 86 68 21
-24 25 -30 99 -140 42 -64 47 -68 82 -67 21 0 33 3 26 5 -23 10 -183 244 -183
269 0 13 51 66 125 129 l30 25 -43 1 c-39 0 -41 -1 -30 -19 11 -18 7 -25 -32
-59 -25 -22 -63 -56 -85 -76 -60 -55 -71 -47 -66 49 1 44 8 86 13 93 8 9 -3
12 -53 11 -35 -1 -56 -3 -46 -6z"/>
<path d="M3117 1003 c-11 -11 -8 -105 3 -98 6 3 10 14 10 24 0 10 9 30 21 45
19 24 27 27 77 24 54 -3 57 -4 62 -33 3 -16 4 -102 0 -190 -5 -158 -5 -160
-30 -172 -22 -11 -15 -13 60 -12 47 1 76 4 65 6 -47 12 -48 17 -42 199 4 94 9
178 12 186 4 10 -1 17 -17 22 -31 8 -213 8 -221 -1z"/>
<path d="M3415 1003 c59 -5 72 -14 96 -70 10 -24 21 -43 24 -43 3 0 5 27 5 60
l0 60 -87 -2 c-58 -1 -71 -3 -38 -5z"/>
<path d="M5147 1004 c-4 -4 -7 -35 -6 -68 l0 -61 17 42 c27 66 48 83 102 83
25 0 51 -5 58 -12 15 -15 17 -324 3 -362 -6 -13 -20 -26 -33 -29 -13 -2 15 -4
62 -5 48 0 74 3 60 7 -35 10 -39 46 -31 235 4 89 5 163 3 166 -6 8 -226 12
-235 4z"/>
<path d="M5445 1003 c57 -5 90 -30 100 -74 12 -54 26 -43 23 18 l-3 58 -85 1
c-47 0 -62 -1 -35 -3z"/>
<path d="M3975 990 c-11 -5 -14 -9 -7 -9 9 -1 12 -46 12 -189 l0 -189 32 -1
c23 -1 28 2 18 8 -12 8 -15 44 -15 200 0 120 -4 190 -10 189 -5 0 -19 -4 -30
-9z"/>
<path d="M3842 979 c2 -6 8 -10 13 -10 5 0 11 4 13 10 2 6 -4 11 -13 11 -9 0
-15 -5 -13 -11z"/>
<path d="M1761 834 c0 -11 3 -14 6 -6 3 7 2 16 -1 19 -3 4 -6 -2 -5 -13z"/>
<path d="M4547 792 c-11 -12 -13 -22 -7 -32 5 -8 10 -43 10 -77 0 -78 6 -93
38 -93 24 0 25 1 7 20 -15 17 -17 32 -13 97 7 105 -1 123 -35 85z"/>
<path d="M4103 761 c23 -19 27 -30 27 -70 0 -39 -5 -53 -26 -75 l-27 -26 32
11 c39 14 51 35 51 92 0 47 -16 69 -60 82 l-25 7 28 -21z"/>
<path d="M3621 756 c-19 -11 -21 -14 -7 -19 24 -10 23 -134 -1 -140 -10 -3 -2
-5 17 -6 l35 -1 -1 81 c-1 44 -5 84 -10 89 -5 5 -19 3 -33 -4z"/>
<path d="M3700 755 c-24 -14 -24 -14 -3 -15 12 0 25 -4 28 -10 11 -18 26 -10
23 12 -4 27 -17 31 -48 13z"/>
<path d="M3835 760 c-4 -7 -2 -17 4 -23 14 -14 14 -102 1 -128 -10 -17 -7 -19
22 -19 19 0 28 4 21 8 -7 5 -13 39 -15 87 -3 74 -16 103 -33 75z"/>
<path d="M4232 758 c8 -7 20 -40 27 -73 12 -64 36 -95 75 -95 21 1 21 1 1 12
-32 18 -43 39 -50 93 -8 58 -19 75 -48 75 -18 0 -19 -2 -5 -12z"/>
<path d="M4384 751 c16 -17 18 -31 13 -80 -3 -42 -1 -63 8 -71 17 -14 49 -2
36 14 -6 7 -11 43 -13 81 -3 69 -3 70 -33 73 -29 4 -30 4 -11 -17z"/>
<path d="M4834 753 c4 -12 2 -32 -4 -44 -10 -18 -9 -20 7 -17 24 4 29 50 7 69
-15 12 -16 12 -10 -8z"/>
<path d="M5652 750 c-12 -11 -25 -32 -28 -45 -7 -28 10 -78 32 -96 22 -18 26
-5 9 27 -19 38 -19 79 1 109 20 30 15 32 -14 5z"/>
<path d="M5760 765 c0 -3 7 -17 16 -31 12 -18 15 -38 12 -76 l-5 -52 18 23
c21 25 25 72 9 101 -10 19 -50 47 -50 35z"/>
<path d="M4718 728 c-40 -49 -4 -139 54 -137 l23 0 -23 10 c-20 8 -39 41 -34
59 1 3 18 8 39 11 l38 6 -44 2 -44 1 6 35 c3 19 5 35 4 35 -1 0 -10 -10 -19
-22z"/>
</g>
</svg>
